<svg xmlns="http://www.w3.org/2000/svg" fill="none" viewBox="-0.5 -0.5 14 14" height="14" width="14"><g id="book-reading--book-reading-learning"><path id="Vector" stroke="#000" stroke-linecap="round" stroke-linejoin="round" d="M6.5 12.535714285714286V7.660714285714286c0 -0.30784 0.12229285714285716 -0.6030700000000001 0.33996857142857145 -0.8207457142857143C7.057644285714286 6.622292857142858 7.352874285714286 6.5 7.660714285714286 6.5v0c0.30784 0 0.6030700000000001 0.12229285714285716 0.8207457142857143 0.33996857142857145 0.21767571428571428 0.21767571428571428 0.33996857142857145 0.5129057142857143 0.33996857142857145 0.8207457142857143V10.214285714285715h1.8571428571428572c0.49251428571428574 0 0.9648785714285714 0.19565000000000002 1.3131857142857142 0.5439571428571429S12.535714285714286 11.578914285714285 12.535714285714286 12.071428571428571v0.4642857142857143" stroke-width="1"></path><path id="Vector_2" stroke="#000" stroke-linecap="round" stroke-linejoin="round" d="M5.810433571428572 2.8740585714285714C4.652969285714286 1.6003464285714286 3.0997757142857147 0.7541996428571429 1.4019292857142858 0.4724116428571428 1.2864057142857142 0.4560511428571429 1.1687185714285715 0.4644575 1.0566957142857143 0.4970735714285714 0.9446635714285715 0.5296887142857143 0.8408595000000001 0.585767 0.7521697857142857 0.6615820714285715 0.6618894285714286 0.7388020714285715 0.5894088571428572 0.8346631428571429 0.5397154285714285 0.9425742857142857c-0.049694357142857144 0.1079 -0.07542228571428572 0.22529928571428573 -0.07541485714285714 0.3440914285714286v6.620983571428571c-0.0012331428571428571 0.2033292857142857 0.07289378571428572 0.39991714285714286 0.2080752142857143 0.5518035714285714 0.13518235714285715 0.15188642857142856 0.32183635714285713 0.24831857142857142 0.5239306428571429 0.27067857142857144 1.326102142857143 0.17986428571428573 2.573127142857143 0.7046185714285715 3.6213914285714286 1.5113614285714287" stroke-width="1"></path><path id="Vector_3" stroke="#000" stroke-linecap="round" stroke-linejoin="round" d="M5.810823571428572 5.4399428571428565V2.8741235714285716" stroke-width="1"></path><path id="Vector_4" stroke="#000" stroke-linecap="round" stroke-linejoin="round" d="M10.424514285714286 8.730131428571429c0.20205714285714285 -0.02236 0.38870000000000005 -0.11879214285714285 0.5239 -0.27067857142857144s0.20929999999999999 -0.34847428571428574 0.20809285714285713 -0.5518035714285714V1.2866657142857143c0 -0.11879214285714285 -0.025721428571428572 -0.23619142857142855 -0.0754 -0.3440914285714286 -0.049678571428571426 -0.10791114285714286 -0.1222 -0.2037722142857143 -0.21245714285714287 -0.2809922142857143 -0.08867857142857144 -0.07581507142857143 -0.19249285714285716 -0.13189335714285716 -0.3045714285714286 -0.1645085 -0.11198571428571429 -0.03261607142857143 -0.22963571428571428 -0.04102242857142858 -0.3452428571428572 -0.02466192857142857C8.521035714285714 0.7541996428571429 6.967842142857143 1.6003464285714286 5.8103685714285715 2.8740585714285714" stroke-width="1"></path></g></svg>