<svg xmlns="http://www.w3.org/2000/svg" fill="none" viewBox="-0.5 -0.5 14 14"><g id="camera-1--photos-picture-camera-photography-photo-pictures"><path id="Vector" stroke="#000" stroke-linecap="round" stroke-linejoin="round" d="M12.535714285714286 4.642857142857143c0 -0.2462757142857143 -0.09787142857142857 -0.48245785714285716 -0.27197857142857146 -0.6566021428571429C12.089628571428573 3.81212 11.8534 3.7142857142857144 11.607142857142858 3.7142857142857144h-1.8571428571428572L8.357142857142858 1.8571428571428572H4.642857142857143L3.25 3.7142857142857144h-1.8571428571428572c-0.2462757142857143 0 -0.48245785714285716 0.09783428571428571 -0.6565993571428572 0.2719692857142857C0.5621172142857144 4.160399285714286 0.4642857142857143 4.396581428571428 0.4642857142857143 4.642857142857143v5.571428571428571c0 0.24625714285714287 0.09783150000000002 0.48248571428571424 0.27197207142857144 0.6565928571428571C0.9103992857142857 11.044985714285716 1.1465814285714286 11.142857142857142 1.3928571428571428 11.142857142857142h10.214285714285715c0.24625714285714287 0 0.48248571428571424 -0.09787142857142857 0.6565928571428571 -0.27197857142857146S12.535714285714286 10.460542857142858 12.535714285714286 10.214285714285715V4.642857142857143Z" stroke-width="1"></path><path id="Vector_2" stroke="#000" stroke-linecap="round" stroke-linejoin="round" d="M6.5 9.053571428571429c1.15388 0 2.0892857142857144 -0.9354057142857144 2.0892857142857144 -2.0892857142857144S7.65388 4.875 6.5 4.875 4.410714285714286 5.810405714285714 4.410714285714286 6.964285714285714 5.34612 9.053571428571429 6.5 9.053571428571429Z" stroke-width="1"></path></g></svg>