<svg xmlns="http://www.w3.org/2000/svg" fill="none" viewBox="-0.5 -0.5 14 14" height="14" width="14"><g id="contact-phonebook-2"><path id="vector" stroke="#000" stroke-linecap="round" stroke-linejoin="round" d="M11.5349 12.464957142857143H2.871217142857143c-0.36280214285714285 0 -0.7107471428571429 -0.14411428571428572 -0.9672928571428573 -0.40067857142857144 -0.2565364285714286 -0.2564714285714286 -0.40066 -0.6044071428571429 -0.40066 -0.9672928571428573 0 -0.36279285714285714 0.14412357142857143 -0.7107285714285714 0.40066 -0.9672928571428573 0.2565457142857143 -0.2564714285714286 0.6044907142857142 -0.4005857142857143 0.9672928571428573 -0.4005857142857143h7.751732857142858c0.24189285714285716 0 0.47385 -0.09610714285714285 0.6448928571428572 -0.26715 0.17104285714285716 -0.17104285714285716 0.2670571428571429 -0.40298142857142855 0.2670571428571429 -0.6448557142857143V1.5213435714285717c0 -0.241865 -0.09601428571428572 -0.47383142857142857 -0.2670571428571429 -0.6448585000000001 -0.17104285714285716 -0.17102799999999999 -0.403 -0.26711007142857146 -0.6448928571428572 -0.26711007142857146H2.871217142857143c-0.3565714285714286 -0.00012628571428571428 -0.6991028571428571 0.13897835714285714 -0.9546178571428571 0.38767857142857143 -0.25551500000000005 0.24870857142857145 -0.4038264285714286 0.5873492857142858 -0.41333500000000006 0.9438v9.119732142857142" stroke-width="1"></path><path id="vector_2" stroke="#000" stroke-linecap="round" stroke-linejoin="round" d="M10.623042857142858 9.729107142857142v2.7359428571428572" stroke-width="1"></path><path id="Vector" stroke="#000" stroke-linecap="round" stroke-linejoin="round" d="M6.986311428571429 7.647695714285714c0.30914928571428574 0.1307707142857143 0.6519035714285714 0.15973285714285715 0.9786121428571429 0.08270785714285714 0.3267085714285714 -0.07703428571428572 0.620425 -0.25605357142857144 0.8385928571428571 -0.5111507142857143l0.22900428571428572 -0.22900428571428572c0.09961714285714286 -0.07995 0.1644592857142857 -0.1953157142857143 0.18098785714285714 -0.32197285714285717 0.016519285714285716 -0.12665714285714286 -0.016575000000000003 -0.25479999999999997 -0.09234642857142857 -0.35763l-0.7387064285714285 -0.7387064285714285c-0.10282071428571428 -0.07577142857142857 -0.23096357142857143 -0.10885642857142858 -0.35763 -0.09233714285714287 -0.12665714285714286 0.016519285714285716 -0.24202285714285712 0.08137071428571428 -0.32197285714285717 0.18098785714285714 -0.07995 0.09961714285714286 -0.1953157142857143 0.16446857142857144 -0.3219821428571429 0.18098785714285714 -0.12665714285714286 0.016519285714285716 -0.25479999999999997 -0.016565714285714288 -0.3576207142857143 -0.09234642857142857L5.841317857142857 4.567308571428572c-0.07577142857142857 -0.10283 -0.10885642857142858 -0.23097285714285715 -0.09233714285714287 -0.35763s0.08137071428571428 -0.24202285714285712 0.18098785714285714 -0.32197285714285717c0.09961714285714286 -0.07995 0.16446857142857144 -0.19532500000000003 0.18098785714285714 -0.3219821428571429s-0.016565714285714288 -0.25479999999999997 -0.09234642857142857 -0.35763l-0.7387064285714285 -0.7386971428571429c-0.10282071428571428 -0.07578071428571428 -0.23096357142857143 -0.10886571428571429 -0.3576207142857143 -0.09234642857142857 -0.12666642857142857 0.016519285714285716 -0.24203214285714286 0.08137071428571428 -0.3219821428571429 0.18098785714285714l-0.228995 0.228995c-0.25415 0.2188642857142857 -0.43248214285714287 0.5125621428571429 -0.5094421428571428 0.8390014285714286 -0.07696928571428573 0.3264392857142857 -0.04862 0.6688685714285714 0.08099 0.9782128571428572 0.7490507142857143 1.2491050000000001 1.7943435714285714 2.294397857142857 3.043457857142857 3.0434485714285713Z" stroke-width="1"></path></g></svg>