<svg xmlns="http://www.w3.org/2000/svg" fill="none" viewBox="-0.5 -0.5 14 14" height="14" width="14"><g id="desktop-game--controller-display-device-computer-games-leisure"><path id="Vector" stroke="#000" stroke-linecap="round" stroke-linejoin="round" d="M0.9285714285714286 1.8571428571428572h11.142857142857142c0.2785714285714286 0 0.4642857142857143 0.18571428571428572 0.4642857142857143 0.4642857142857143v7.428571428571429c0 0.2785714285714286 -0.18571428571428572 0.4642857142857143 -0.4642857142857143 0.4642857142857143H0.9285714285714286c-0.2785714285714286 0 -0.4642857142857143 -0.18571428571428572 -0.4642857142857143 -0.4642857142857143v-7.428571428571429c0 -0.2785714285714286 0.18571428571428572 -0.4642857142857143 0.4642857142857143 -0.4642857142857143Z" stroke-width="1"></path><path id="Vector_2" stroke="#000" stroke-linecap="round" stroke-linejoin="round" d="m5.571428571428571 10.214285714285715 -0.9285714285714286 2.3214285714285716" stroke-width="1"></path><path id="Vector_3" stroke="#000" stroke-linecap="round" stroke-linejoin="round" d="m7.428571428571429 10.214285714285715 0.9285714285714286 2.3214285714285716" stroke-width="1"></path><path id="Vector_4" stroke="#000" stroke-linecap="round" stroke-linejoin="round" d="M3.7142857142857144 12.535714285714286h5.571428571428571" stroke-width="1"></path><path id="Vector_5" stroke="#000" stroke-linecap="round" stroke-linejoin="round" d="M2.7857142857142856 6.035714285714286h2.7857142857142856" stroke-width="1"></path><path id="Vector_6" stroke="#000" stroke-linecap="round" stroke-linejoin="round" d="M4.178571428571429 4.642857142857143v2.7857142857142856" stroke-width="1"></path><g id="Group 623"><path id="Vector_7" stroke="#000" stroke-linecap="round" stroke-linejoin="round" d="M10.02857142857143 5.617903571428571c-0.1282357142857143 0 -0.23214285714285715 -0.103935 -0.23214285714285715 -0.23214285714285715s0.10390714285714286 -0.23214285714285715 0.23214285714285715 -0.23214285714285715" stroke-width="1"></path><path id="Vector_8" stroke="#000" stroke-linecap="round" stroke-linejoin="round" d="M10.02857142857143 5.617903571428571c0.1282357142857143 0 0.23214285714285715 -0.103935 0.23214285714285715 -0.23214285714285715s-0.10390714285714286 -0.23214285714285715 -0.23214285714285715 -0.23214285714285715" stroke-width="1"></path></g><g id="Group 625"><path id="Vector_9" stroke="#000" stroke-linecap="round" stroke-linejoin="round" d="M8.357142857142858 6.917810714285714c-0.12820785714285715 0 -0.23214285714285715 -0.103935 -0.23214285714285715 -0.23214285714285715s0.103935 -0.23214285714285715 0.23214285714285715 -0.23214285714285715" stroke-width="1"></path><path id="Vector_10" stroke="#000" stroke-linecap="round" stroke-linejoin="round" d="M8.357142857142858 6.917810714285714c0.12820785714285715 0 0.23214285714285715 -0.103935 0.23214285714285715 -0.23214285714285715s-0.103935 -0.23214285714285715 -0.23214285714285715 -0.23214285714285715" stroke-width="1"></path></g></g></svg>