<svg xmlns="http://www.w3.org/2000/svg" fill="none" viewBox="-0.5 -0.5 14 14" height="14" width="14"><g id="dictionary-language-book"><path id="vector" stroke="#000" stroke-linecap="round" stroke-linejoin="round" d="M11.607142857142858 12.535714285714286H2.7857142857142856c-0.36940428571428574 0 -0.7236914285714287 -0.1467142857142857 -0.9848985714285714 -0.4079214285714286C1.5396085714285714 11.866585714285716 1.3928571428571428 11.512242857142859 1.3928571428571428 11.142857142857142c0 -0.36938571428571426 0.1467514285714286 -0.7237285714285714 0.40795857142857145 -0.9849357142857142S2.41631 9.75 2.7857142857142856 9.75h7.892857142857143c0.24625714285714287 0 0.48248571428571424 -0.09787142857142857 0.6565928571428571 -0.27197857142857146S11.607142857142858 9.067704285714285 11.607142857142858 8.821428571428571v-7.428571428571429c0 -0.2462757142857143 -0.09787142857142857 -0.48245785714285716 -0.27197857142857146 -0.6565993571428572C11.161057142857144 0.5621172142857144 10.924828571428572 0.4642857142857143 10.678571428571429 0.4642857142857143H2.7857142857142856c-0.3630621428571429 -0.00012907142857142856 -0.7118242857142858 0.1415087142857143 -0.9719914285714285 0.39474035714285716C1.5535464285714287 1.1122614285714287 1.402542142857143 1.4570678571428572 1.3928571428571428 1.82v9.285714285714286" stroke-width="1"></path><path id="vector_2" stroke="#000" stroke-linecap="round" stroke-linejoin="round" d="M10.678571428571429 9.75v2.7857142857142856" stroke-width="1"></path><path id="vector 3" stroke="#000" stroke-linecap="round" stroke-linejoin="round" d="M7.476374285714286 4.644667857142857h2.1496614285714286L7.342019285714286 7.869215714285714h2.4183807142857146" stroke-width="1"></path><path id="vector 1" stroke="#000" stroke-linecap="round" stroke-linejoin="round" d="m3.260882857142857 5.557992142857143 0.9898757142857143 -2.969627142857143c0.05074642857142857 -0.15223928571428574 0.19320785714285715 -0.2549207142857143 0.35368357142857143 -0.2549207142857143v0c0.1604757142857143 0 0.30294642857142856 0.10268142857142858 0.35368357142857143 0.2549207142857143l0.9898757142857143 2.969627142857143M3.6191628571428573 4.483142857142858H5.589721428571429" stroke-width="1"></path></g></svg>