<svg xmlns="http://www.w3.org/2000/svg" fill="none" viewBox="-0.5 -0.5 14 14"><g id="pencil--change-edit-modify-pencil-write-writing"><path id="Vector" stroke="#000" stroke-linecap="round" stroke-linejoin="round" d="M4.642857142857143 11.365714285714287 0.4642857142857143 12.535714285714286l1.1700000000000002 -4.178552857142857L9.285714285714286 0.7428766428571428c0.08645 -0.08844271428571429 0.1898 -0.15871607142857141 0.3037357142857143 -0.20669257142857145 0.11402857142857144 -0.047977428571428574 0.23650714285714286 -0.07269135714285715 0.3601928571428572 -0.07269135714285715 0.1236857142857143 0 0.24616428571428572 0.02471392857142857 0.3601928571428572 0.07269135714285715 0.11393571428571429 0.0479765 0.2172857142857143 0.11824985714285713 0.3037357142857143 0.20669257142857145L12.257142857142856 2.3957328571428573c0.08700714285714287 0.08632000000000001 0.15609285714285714 0.18902928571428573 0.20326428571428573 0.30217571428571427 0.04717142857142857 0.11315571428571429 0.07140714285714285 0.23452928571428575 0.07140714285714285 0.35711 0 0.12258071428571428 -0.024235714285714288 0.24395428571428573 -0.07140714285714285 0.35711 -0.04717142857142857 0.11315571428571429 -0.11625714285714286 0.2158557142857143 -0.20326428571428573 0.30217571428571427L4.642857142857143 11.365714285714287Z" stroke-width="1"></path></g></svg>