<svg id="Layer_1" data-name="Layer 1" xmlns="http://www.w3.org/2000/svg" viewBox="0 0 550 550"><defs><style>.cls-1,.cls-2{fill:#fff;}.cls-2,.cls-4{fill-rule:evenodd;}.cls-3,.cls-4{fill:#333;}</style></defs><path class="cls-1" d="M475,75V475H75V75H475M550,0H0V550H550V0Z"/><path class="cls-2" d="M396.13,272.9a85.34,85.34,0,0,0-78.58-28.21l-3.82.64-2.57-2.89a101.27,101.27,0,1,1,171.52-100A101.4,101.4,0,0,1,419.59,271a103,103,0,0,1-17.08,4.24l-3.83.6Z"/><path class="cls-3" d="M386.87,80.88A94.28,94.28,0,0,1,401.41,268.3a92.31,92.31,0,0,0-85-30.51A94.32,94.32,0,0,1,386.87,80.88m0-14A108.31,108.31,0,0,0,305.93,247.1l5.15,5.78,7.64-1.29a78.36,78.36,0,0,1,72.13,25.9l5.1,5.86,7.66-1.22a110.51,110.51,0,0,0,18.24-4.52,108.27,108.27,0,0,0-35-210.73Z"/><path class="cls-2" d="M331.63,413.08a84.12,84.12,0,1,1,77.31-50.91l-1.29,3-3.12.94c-.95.29-1.9.59-2.85.91A78.7,78.7,0,0,0,356.23,407l-1.45,2.92-3.16.78a83.79,83.79,0,0,1-20,2.42Z"/><path class="cls-3" d="M331.65,251.81A77.15,77.15,0,0,1,402.51,359.4c-1,.31-2.06.63-3.08,1A86,86,0,0,0,350,403.86a77.12,77.12,0,1,1-18.3-152m0-14a91.14,91.14,0,1,0,21.64,179.65l6.33-1.56,2.88-5.85A71.82,71.82,0,0,1,404,373.63c.73-.25,1.57-.52,2.59-.82l6.24-1.89,2.58-6a91.15,91.15,0,0,0-83.72-127.12Z"/><path class="cls-2" d="M239.22,337.7A101.28,101.28,0,1,1,282.8,145l5,2.4-1.22,5.45a102.92,102.92,0,0,0,18.88,85l5.85,7.58-9,3.27a85.41,85.41,0,0,0-56.14,81.87l.14,7.14Z"/><path class="cls-3" d="M239.37,142.15a94.29,94.29,0,0,1,40.42,9.14A109.94,109.94,0,0,0,300,242.13a92.44,92.44,0,0,0-60.73,88.57,94.28,94.28,0,0,1,.14-188.55m0-14a108.28,108.28,0,0,0-.16,216.55l14.29,0-.28-14.29a78.4,78.4,0,0,1,51.54-75.15l18-6.55-11.68-15.15a96,96,0,0,1-17.6-79.23l2.45-10.9-10.1-4.8a108.8,108.8,0,0,0-46.43-10.5Z"/><path class="cls-2" d="M469.8,375.07a79.33,79.33,0,0,0-42.45-12.34c-2.24,0-4.5.09-6.73.29l-10.34.88,3.05-9.91a85.75,85.75,0,0,0-8-68.37l-4.82-8.21,9.28-2.15a103,103,0,0,0,52.05-29.9l2.85-3.05,4,1.05A69.55,69.55,0,0,1,476,375.7L472.76,377Z"/><path class="cls-3" d="M466.92,250.14a62.55,62.55,0,0,1,6.62,119,86.45,86.45,0,0,0-46.19-13.43c-2.43,0-4.88.1-7.33.31a92.63,92.63,0,0,0-8.69-74,113.64,113.64,0,0,0,11-3.13,109.1,109.1,0,0,0,44.6-28.81m-4.55-15.65-5.68,6.09A95.72,95.72,0,0,1,417.8,265.7a98.77,98.77,0,0,1-9.62,2.74l-18.57,4.29,9.65,16.44a78.87,78.87,0,0,1,6.6,14.41,77.89,77.89,0,0,1,.78,48.35l-6.09,19.84L421.22,370c2-.17,4.09-.26,6.13-.26A72.26,72.26,0,0,1,466.06,381l5.91,3.75,6.55-2.49a76.56,76.56,0,0,0-8.09-145.67l-8.06-2.09Z"/><path class="cls-2" d="M427.34,511.61a69.59,69.59,0,1,1,22.49-3.75,69.53,69.53,0,0,1-22.49,3.75Z"/><path class="cls-3" d="M427.35,379.48a62.61,62.61,0,1,1-20.23,3.38,62.57,62.57,0,0,1,20.23-3.38m0-14a76.56,76.56,0,1,0,72.43,51.82,76.43,76.43,0,0,0-72.43-51.82Z"/><path class="cls-4" d="M243.93,159.22c-38.58,21.84-64.81,49.31-75.68,82.39q.74-62.28,74.18-82.39"/><path class="cls-4" d="M390,103.37q54.89,17.22,76.63,75.89a1.26,1.26,0,0,0,2.43-.54q-5.55-70.59-79.06-75.35"/><path class="cls-4" d="M293,294.05q-33.78,53.22,17.72,86.31Q277.28,342.11,293,294.05"/><path class="cls-4" d="M485.91,286.1q27.63,20.06,9.64,57.37,2-28.16-9.64-57.37"/><path class="cls-4" d="M392.92,424.73q-21.66,25.74,7.38,45.47a70.47,70.47,0,0,1-7.38-45.47"/><path class="cls-4" d="M263.3,140.91a4,4,0,0,1-1-.12,4.15,4.15,0,0,1-1-.43,3.92,3.92,0,0,1-1.25-1.14,4.08,4.08,0,0,1-.61-1.3c0-.17-.07-.35-.1-.52-5.24-37.07-35.76-58.2-53.49-67.5-18.4-9.56-17.29-20.72-16.51-23.92,1.55-6.35,7.63-10.61,15.12-10.61a25.06,25.06,0,0,1,12,3.34A109,109,0,0,1,265.1,93.86c7.76-20.24,25.2-43.45,63.52-58.33a4,4,0,0,1,4.31,6.52c-11.21,11.53-12.49,24-13.85,37.3-2.13,20.76-4.33,42.23-43.12,59.48a4,4,0,0,1-1.63.34,4,4,0,0,1-3.89-4.92c.15-.64,1.75-7.21,4.86-16.18a158.26,158.26,0,0,0-8.11,19.84,4.85,4.85,0,0,1-.29.75,4.29,4.29,0,0,1-.42.68,4.09,4.09,0,0,1-1.31,1.11,4.15,4.15,0,0,1-1.4.43A3.59,3.59,0,0,1,263.3,140.91Z"/><path class="cls-1" d="M330.06,39.26h0m0,0c-30.16,31,5.81,68.55-55.73,95.91,0,0,8.82-37,27.08-57.4-12.69,7.71-29.1,31.93-38.06,59,0-.14,0-.36.11-.64l-.16.78c-5.43-38.65-36.46-60.52-55.6-70.55-22-11.41-16.21-27-3.25-27a20.82,20.82,0,0,1,10.07,2.84c42.68,23.74,50.66,65.28,50.66,65.28,5-22.73,20.54-51,64.88-68.23m-66.71,97.51a.38.38,0,0,1-.05.14l.05-.14M330.06,31.26a7,7,0,0,0-1,.07,7.91,7.91,0,0,0-2.06.54C292.64,45.25,274.51,65.21,265.07,84a113,113,0,0,0-46.66-48.81,29.11,29.11,0,0,0-14-3.85c-9.37,0-17,5.49-19,13.66-1,3.91-2.44,17.52,18.56,28.43,17,8.92,46.33,29.17,51.35,64.44a8.59,8.59,0,0,0,.2,1,7.84,7.84,0,0,0,1.21,2.62,7.94,7.94,0,0,0,2.5,2.28,7.5,7.5,0,0,0,2.11.86,7.83,7.83,0,0,0,1.92.24,7.57,7.57,0,0,0,.95-.06,7.93,7.93,0,0,0,5.37-3l.09-.11a8,8,0,0,0,4.63,1.47,7.83,7.83,0,0,0,3.24-.69c40.92-18.19,43.34-41.85,45.48-62.73,1.33-13,2.49-24.32,12.66-34.83a8,8,0,0,0-5.14-13.64l-.52,0Zm0,16h0Z"/></svg>