<svg xmlns="http://www.w3.org/2000/svg" fill="none" viewBox="-0.5 -0.5 14 14" height="14" width="14"><g id="user-identifier-card"><path id="Rectangle 56" stroke="#000" stroke-linecap="round" stroke-linejoin="round" d="M1.2610000000000001 2.104142857142857h10.478000000000002s0.7967142857142857 0 0.7967142857142857 0.7967142857142857v7.198285714285714s0 0.7967142857142857 -0.7967142857142857 0.7967142857142857H1.2610000000000001s-0.7967142857142857 0 -0.7967142857142857 -0.7967142857142857V2.9008571428571432s0 -0.7967142857142857 0.7967142857142857 -0.7967142857142857" stroke-width="1"></path><path id="Rectangle 433" stroke="#000" stroke-linecap="round" stroke-linejoin="round" d="m8.690852857142858 5.459433571428572 1.8449042857142859 0" stroke-width="1"></path><path id="Rectangle 434" stroke="#000" stroke-linecap="round" stroke-linejoin="round" d="m8.690852857142858 7.287902142857143 1.8449042857142859 0" stroke-width="1"></path><path id="Vector" stroke="#000" stroke-linecap="round" stroke-linejoin="round" d="M3.2566857142857146 5.764283571428572c0 0.8414621428571429 0.6821378571428571 1.5236 1.5236 1.5236 0.21272642857142857 0 0.4152664285714286 -0.04359642857142857 0.5991792857142857 -0.12233928571428572 0.5435764285714285 -0.23274642857142858 0.9244114285714286 -0.772525 0.9244114285714286 -1.4012607142857143 0 -0.8414621428571429 -0.6821285714285715 -1.5236 -1.5235907142857144 -1.5236 -0.8414621428571429 0 -1.5236 0.6821378571428571 -1.5236 1.5236Z" stroke-width="1"></path><path id="Vector_2" stroke="#000" stroke-linecap="round" stroke-linejoin="round" d="M2.464252142857143 8.796617142857144c0.24209714285714287 -0.46047857142857146 0.5823535714285715 -0.8410535714285715 0.9880557142857144 -1.10513 0.4057021428571429 -0.26408571428571426 0.8632092857142858 -0.4027864285714286 1.328535 -0.4027864285714286 0.465335 0 0.9228421428571428 0.1387007142857143 1.3285442857142857 0.4027864285714286 0.4057021428571429 0.26407642857142855 0.7459585714285715 0.6446514285714285 0.9880557142857144 1.10513" stroke-width="1"></path></g></svg>