<svg xmlns="http://www.w3.org/2000/svg" fill="none" viewBox="-0.5 -0.5 14 14" height="14" width="14"><g id="user-multiple-group--close-geometric-human-multiple-person-up-user"><path id="Vector" stroke="#000" stroke-linecap="round" stroke-linejoin="round" d="M4.642857142857143 6.035714285714286c1.2820878571428573 0 2.3214285714285716 -1.0393407142857143 2.3214285714285716 -2.3214285714285716S5.924945 1.3928571428571428 4.642857142857143 1.3928571428571428 2.3214285714285716 2.432197857142857 2.3214285714285716 3.7142857142857144 3.360769285714286 6.035714285714286 4.642857142857143 6.035714285714286Z" stroke-width="1"></path><path id="Vector_2" stroke="#000" stroke-linecap="round" stroke-linejoin="round" d="M0.4642857142857143 12.535714285714286h8.357142857142858v-0.5033785714285715c-0.007391428571428571 -0.7077571428571429 -0.19405285714285714 -1.4021428571428571 -0.5425364285714286 -2.018157142857143 -0.34849285714285716 -0.6161071428571429 -0.8474421428571429 -1.1337857142857144 -1.4502428571428572 -1.5047407142857143 -0.60281 -0.37096428571428575 -1.2898042857142857 -0.5830778571428572 -1.9968092857142856 -0.6165528571428571C4.768808571428572 7.889904285714286 4.705795714285714 7.888344285714285 4.642857142857143 7.888214285714286c-0.06293857142857144 0.00013 -0.12595142857142858 0.00169 -0.18898285714285715 0.004670714285714286 -0.707005 0.033475 -1.3939992857142858 0.24558857142857143 -1.9968092857142856 0.6165528571428571 -0.6028007142857144 0.37095500000000003 -1.1017500000000002 0.8886335714285715 -1.4502428571428572 1.5047407142857143C0.6583357857142857 10.630192857142857 0.47167807142857143 11.324578571428573 0.4642857142857143 12.032335714285715V12.535714285714286Z" stroke-width="1"></path><path id="Vector_3" stroke="#000" stroke-linecap="round" stroke-linejoin="round" d="M8.357142857142858 6.035714285714286c1.2820785714285714 0 2.3214285714285716 -1.0393407142857143 2.3214285714285716 -2.3214285714285716S9.639221428571428 1.3928571428571428 8.357142857142858 1.3928571428571428" stroke-width="1"></path><path id="Vector_4" stroke="#000" stroke-linecap="round" stroke-linejoin="round" d="M10.678571428571429 12.535807142857143h1.8571428571428572v-0.5034714285714286c-0.007428571428571429 -0.7077571428571429 -0.19407142857142856 -1.4021428571428571 -0.5425642857142857 -2.018157142857143 -0.34849285714285716 -0.6161071428571429 -0.8474142857142857 -1.1337671428571428 -1.4502428571428572 -1.504722142857143 -0.38962857142857144 -0.23980357142857142 -0.8145428571428571 -0.41322357142857147 -1.2571928571428572 -0.5149207142857143" stroke-width="1"></path></g></svg>